<?xml version="1.0" encoding="UTF-8"?>
<svg width="178px" height="51px" viewBox="0 0 178 51" version="1.1" xmlns="http://www.w3.org/2000/svg" xmlns:xlink="http://www.w3.org/1999/xlink">
    <!-- Generator: Sketch 58 (84663) - https://sketch.com -->
    <title>Logo / Blanco </title>
    <desc>Created with Sketch.</desc>
    <defs>
        <filter x="-13.5%" y="-65.2%" width="127.0%" height="230.3%" filterUnits="objectBoundingBox" id="filter-1">
            <feOffset dx="0" dy="2" in="SourceAlpha" result="shadowOffsetOuter1"></feOffset>
            <feGaussianBlur stdDeviation="4.5" in="shadowOffsetOuter1" result="shadowBlurOuter1"></feGaussianBlur>
            <feColorMatrix values="0 0 0 0 0.0209648027   0 0 0 0 0   0 0 0 0 0.0819180254  0 0 0 1 0" type="matrix" in="shadowBlurOuter1" result="shadowMatrixOuter1"></feColorMatrix>
            <feMerge>
                <feMergeNode in="shadowMatrixOuter1"></feMergeNode>
                <feMergeNode in="SourceGraphic"></feMergeNode>
            </feMerge>
        </filter>
    </defs>
    <g id="Logo-/-Blanco-" stroke="none" stroke-width="1" fill="none" fill-rule="evenodd">
        <g id="Group-11" filter="url(#filter-1)" transform="translate(12.000000, 6.000000)">
            <path d="M129.767729,25.9847352 C126.8481,25.9847352 124.862753,23.8826025 124.862753,20.8267244 C124.862753,17.7708462 126.8481,15.6687135 129.767729,15.6687135 C132.687358,15.6687135 134.672706,17.7708462 134.672706,20.8267244 C134.672706,23.8826025 132.707017,25.9847352 129.767729,25.9847352 M72.0369357,9.5569572 C76.0660234,9.5569572 79.3751307,11.4060554 80.6206443,15.513 C80.9442365,16.6200259 81.118806,17.7568563 81.1573922,18.9104519 L81.1656417,19.4058384 L81.1656417,23.8242099 C81.1461775,24.7584912 81.8274242,25.556523 82.7422413,25.7122366 C83.6959867,25.8679501 84.5913395,25.2840243 84.8638382,24.3886715 C84.8833024,24.2718864 84.9027666,24.135637 84.9224254,24.0188519 C84.9040772,22.9470237 84.9367649,16.3646665 84.9412048,15.4917825 L84.941695,10.140883 L84.9611592,10.140883 C85.0974085,10.2965965 85.2336578,10.4328458 85.3699072,10.549631 C87.0840118,12.0376999 89.654865,11.9216439 91.2125557,10.307307 L91.3648783,10.140883 L91.4038067,10.140883 L91.4030825,15.5132306 C91.3965643,16.4042004 91.3494886,23.1222014 91.4038067,24.1940296 C91.4621993,24.7584912 91.7930905,25.2645601 92.2991595,25.5175946 C93.6914981,26.2137639 95.0656484,25.2911828 95.1557114,23.9981686 L95.1603958,23.8631383 L95.1603958,20.3985121 C95.1214674,18.76352 95.3939661,17.1674563 95.9389634,15.6297851 C97.4377062,11.6396257 100.980384,9.59588558 105.65179,9.59588558 C110.731749,9.59588558 114.44941,11.9510528 115.695118,16.6224589 C115.967617,17.6954225 116.121047,18.7981906 116.141976,19.9046843 L116.142795,24.4859925 C116.142795,25.2256318 116.746379,25.8095575 117.46636,25.8095575 C118.186535,25.8095575 118.790119,25.2256318 118.790119,24.4859925 C118.790119,24.3886715 118.790119,24.2913505 118.770461,24.2134938 C118.147607,21.702613 118.264392,19.0360187 119.14028,16.5835305 C120.736539,12.2819441 124.707039,9.59588558 129.86505,9.59588558 C136.417792,9.59588558 141.028072,13.8961224 141.170543,20.6771292 L141.17394,21.0019021 L141.17394,31.3957806 L135.256631,31.3957806 L135.256631,27.9116903 L135.237362,27.9116903 C134.108244,30.519892 131.714148,31.9602422 128.677734,31.9602422 C126.69944,31.941923 124.772698,31.3718713 123.108464,30.2987696 L122.799548,30.0916798 L122.780279,30.0916798 C121.339734,31.3568522 119.451707,32.0575632 117.524947,32.0186348 C113.212102,32.0186348 109.966008,28.9504615 109.730136,24.7399769 L109.719611,24.4859925 L109.719611,20.3985121 C109.719611,17.0506711 108.065155,15.6297851 105.671059,15.6297851 C103.343466,15.6297851 101.714992,16.9728294 101.626318,20.1239751 L101.622508,20.3985121 L101.622508,22.8899287 C101.641972,23.123499 101.641972,23.3570693 101.641972,23.5906396 C101.641972,28.3788309 98.060755,31.9602422 93.2529049,31.9602422 C91.537623,31.9784899 89.8565555,31.4664144 88.4342344,30.5042056 L88.1532866,30.3057859 L88.1340171,30.3057859 C86.6545439,31.3957806 84.8638382,31.9797064 83.0342041,31.9602422 C78.2460129,31.9602422 74.6646016,28.3982951 74.6646016,23.5906396 C74.6646016,23.4089738 74.6732523,23.227308 74.6847867,23.0456423 L74.70353,22.7731436 L74.70353,19.4642309 C74.70353,16.6224589 73.282644,15.6297851 71.3946173,15.6297851 C69.5638036,15.6297851 68.2088528,16.5632084 68.1284157,19.2109581 L68.1246331,19.4642309 L68.1246331,31.3957806 L61.7014497,31.3957806 L61.7014497,19.4447667 C61.7014497,16.6029947 60.3584205,15.6103209 58.4314655,15.6103209 C56.562903,15.6103209 55.2068083,16.5437442 55.1263366,19.1914939 L55.1225528,19.4447667 L55.1225528,24.3108147 C55.0057677,28.6707937 51.385428,32.1159557 47.0254489,31.9991706 C45.1687813,32.0359363 43.3641984,31.4303236 41.906847,30.2971118 L41.653332,30.0916798 L41.6338678,30.0916798 C40.6995865,30.7339981 39.6485202,31.2206029 38.5390612,31.5125658 C37.3712097,31.8239928 36.1449656,31.9991706 34.9381857,31.9797064 C32.4119385,31.9797064 30.2350762,31.4032212 28.5234475,30.2502509 L28.2425037,30.0527514 L28.2230395,30.0527514 C27.3860792,30.7729265 26.4128696,31.3179239 25.3423391,31.6682793 C24.524843,31.9018496 23.6878827,32.0186348 22.8314583,32.0186348 C22.2708896,32.0186348 21.7227779,31.9688064 21.1771577,31.8691498 L20.7682539,31.7850645 L20.6320046,31.7461361 C20.5152194,31.7266719 20.3984343,31.6877435 20.2816491,31.6488151 C20.0480788,31.5709584 19.8145085,31.4931016 19.5809382,31.3957806 C16.8873452,30.2279291 14.9958146,27.7658405 14.5590512,24.8739075 L14.5202483,24.5833134 L14.5202483,20.3985121 C14.5202483,17.0506711 12.865792,15.6297851 10.4716964,15.6297851 C8.14410341,15.6297851 6.51562938,16.9728294 6.42695458,20.1239751 L6.42314443,20.3985121 L6.42314443,31.3957806 L-3.89283841e-05,31.3957806 L-3.89283841e-05,20.3595838 C-3.89283841e-05,13.2356895 4.22369074,9.57642139 10.4911606,9.57642139 C15.1625666,9.57642139 18.6855854,11.561769 20.1843282,15.5324641 C20.6974751,16.930347 20.9693303,18.4086604 20.9998939,19.9089095 L21.0018242,20.3595838 L21.0018242,24.1940296 C21.0407526,24.641706 21.2743229,25.050454 21.6441426,25.3034885 C22.9287792,26.1793772 24.3691295,25.4981304 24.6805565,24.2913505 C24.7000207,24.135637 24.7000207,23.9799235 24.7194849,23.8242099 C24.6642205,22.0189061 24.7135637,11.6706468 24.7190091,10.2700749 L24.7194849,10.1214188 L30.9480264,10.1214188 L30.9480264,21.196544 C30.9674905,24.5054567 32.6998036,25.9068785 35.0938992,25.9068785 C35.5026473,25.9068785 35.9113953,25.8679501 36.3006792,25.7706291 C37.8980853,25.3008038 38.951142,23.9600195 39.0218672,21.4329291 L39.025666,21.1576156 L39.025666,10.1214188 L45.3515284,10.1214188 L45.3515284,23.9020667 C45.3515284,24.7779553 46.0327752,25.556523 46.9086638,25.6149156 C47.8147219,25.6703885 48.5802486,24.9880713 48.6545361,24.1019834 L48.6604411,23.9604593 L48.6604411,19.4058384 C48.6604411,18.257451 48.7772262,17.1090637 49.0497249,15.9996048 C50.1591839,11.561769 53.5654175,9.5569572 57.7696829,9.5569572 C60.6601154,9.5569572 63.1161787,10.6247816 64.7190166,12.7080735 L64.8935772,12.9437266 L64.9130414,12.9437266 C66.5091051,10.7248087 68.9810575,9.5569572 72.0369357,9.5569572 Z M153.825626,26.1171603 L155.499352,28.2192931 L157.173273,26.1171603 L157.990769,26.1171603 L155.9081,28.7253621 L158.107748,31.4892773 L157.309522,31.4892773 L155.499352,29.231431 L153.708646,31.4892773 L152.89115,31.4892773 L155.090799,28.7253621 L153.00813,26.1171603 L153.825626,26.1171603 Z M149.99118,26.0003946 C151.21723,25.9809304 151.82062,26.6816414 151.82062,28.063599 L151.82062,31.4698326 L151.159032,31.4698326 L151.159032,28.1025274 C151.159032,27.55753 151.061711,27.1682462 150.867069,26.9152117 C150.672427,26.6621772 150.360805,26.545392 149.952057,26.545392 C149.465453,26.545392 149.076169,26.7011056 148.784206,27.0319968 C148.511707,27.3628881 148.355994,27.8105645 148.355994,28.3750261 L148.355994,31.4698326 L147.694406,31.4698326 L147.694406,28.1025274 C147.694406,27.55753 147.597085,27.1682462 147.402443,26.9152117 C147.207801,26.6621772 146.896179,26.545392 146.467967,26.545392 C145.981362,26.545392 145.592078,26.7011056 145.300115,27.0319968 C145.008153,27.3628881 144.872098,27.8105645 144.872098,28.3750261 L144.872098,31.4698326 L144.229585,31.4698326 L144.229585,27.5964584 C144.229585,27.0319968 144.210121,26.545392 144.151923,26.1171798 L144.774777,26.1171798 L144.852439,27.0903894 C145.008153,26.7400339 145.222453,26.4675352 145.514416,26.2728933 C145.806379,26.0782514 146.15654,26.0003946 146.545824,26.0003946 C147.402443,26.0003946 147.96671,26.3507501 148.20028,27.051461 C148.355994,26.7205697 148.589564,26.4675352 148.900991,26.2728933 C149.212613,26.0782514 149.582238,26.0003946 149.99118,26.0003946 Z" id="Fill-1" fill="#FFFFFF"></path>
            <path d="M88.1533256,3.8928384e-05 C90.4214879,3.8928384e-05 92.2602701,1.83882115 92.2602701,4.10698344 C92.2602701,6.37514573 90.4214879,8.21392795 88.1533256,8.21392795 C85.8851633,8.21392795 84.0463811,6.37514573 84.0463811,4.10698344 C84.0463811,1.83882115 85.8851633,3.8928384e-05 88.1533256,3.8928384e-05" id="Fill-4" fill="#8344FD"></path>
        </g>
    </g>
</svg>